<svg width="1240" height="45" viewBox="0 0 1240 45" fill="none" xmlns="http://www.w3.org/2000/svg">
<path d="M0 10C0 4.47715 4.47715 0 10 0H1230C1235.52 0 1240 4.47715 1240 10V45H0V10Z" fill="#333333"/>
<path d="M280 22.5C280 10.0736 269.926 0 257.5 0H22.5C10.0736 0 0 10.0736 0 22.5V45H257.5C269.926 45 280 34.9264 280 22.5V22.5Z" fill="url(#paint0_linear_1205_1020)"/>
<path d="M559 22.5C559 10.0736 548.926 0 536.5 0H280V45H536.5C548.926 45 559 34.9264 559 22.5Z" fill="url(#paint1_linear_1205_1020)"/>
<path d="M838 22.5C838 10.0736 827.926 0 815.5 0H559V45H815.5C827.926 45 838 34.9264 838 22.5Z" fill="url(#paint2_linear_1205_1020)"/>
<path d="M1117 22.5C1117 10.0736 1106.93 0 1094.5 0H838V45H1094.5C1106.93 45 1117 34.9264 1117 22.5Z" fill="url(#paint3_linear_1205_1020)"/>
<defs>
<linearGradient id="paint0_linear_1205_1020" x1="278.125" y1="23" x2="-1.38753e-05" y2="23" gradientUnits="userSpaceOnUse">
<stop stop-color="#535353"/>
<stop offset="1" stop-color="#333333"/>
</linearGradient>
<linearGradient id="paint1_linear_1205_1020" x1="557.132" y1="23" x2="280" y2="23" gradientUnits="userSpaceOnUse">
<stop stop-color="#535353"/>
<stop offset="1" stop-color="#333333"/>
</linearGradient>
<linearGradient id="paint2_linear_1205_1020" x1="836.132" y1="23" x2="559" y2="23" gradientUnits="userSpaceOnUse">
<stop stop-color="#535353"/>
<stop offset="1" stop-color="#333333"/>
</linearGradient>
<linearGradient id="paint3_linear_1205_1020" x1="1115.13" y1="23" x2="838" y2="23" gradientUnits="userSpaceOnUse">
<stop stop-color="#535353"/>
<stop offset="1" stop-color="#333333"/>
</linearGradient>
</defs>
</svg>
