<svg width="25" height="25" viewBox="0 0 25 25" fill="none" xmlns="http://www.w3.org/2000/svg">
<circle cx="20.5" cy="4.1709" r="3.5" fill="#FF4747"/>
<path d="M8.69613 0.018301C5.60642 0.0957584 3.4462 0.891853 2.14233 2.43241C1.14398 3.62009 0.584563 5.15634 0.382312 7.30365C0.304854 8.12986 0.304854 16.547 0.382312 17.3732C0.68784 20.5963 1.84971 22.6102 4.02714 23.6946C4.97384 24.1636 6.17014 24.4735 7.59881 24.6112C8.40351 24.6929 16.9067 24.6886 17.7329 24.6112C22.2771 24.1766 24.4545 22.012 24.9236 17.4808C24.9752 16.9472 25.0311 10.3718 24.9838 9.99316C24.8762 9.10669 23.7574 8.89584 23.3572 9.69193C23.3012 9.80381 23.2883 10.3288 23.2711 13.3927C23.2496 17.1322 23.2324 17.5152 23.043 18.4533C22.7762 19.8002 22.3244 20.7168 21.5713 21.4268C21.2013 21.7754 20.9861 21.926 20.4998 22.167C19.7769 22.5284 18.7915 22.7823 17.6683 22.8899C16.8034 22.9717 8.50678 22.9717 7.64184 22.8899C5.24925 22.6618 3.73882 21.8571 2.9126 20.3639C2.51671 19.6539 2.21979 18.5436 2.11221 17.3947C2.05626 16.7578 2.05626 7.91901 2.11221 7.28213C2.28003 5.48769 2.83515 4.09345 3.7087 3.27584C4.52631 2.51417 5.42568 2.13118 7.0609 1.85147C7.40946 1.79123 8.03773 1.77832 11.2996 1.7568C15.1165 1.73098 15.1294 1.73098 15.3016 1.63631C16.0503 1.23611 15.9169 0.186127 15.0993 0.026907C14.9358 -0.00321388 9.87951 -0.0118217 8.69613 0.018301Z" fill="#333333"/>
<path d="M20.4454 0.0171652C19.503 0.0817137 18.7198 0.382938 17.9969 0.95957C16.977 1.77718 16.4004 2.97778 16.4004 4.28596C16.4004 7.37997 19.5159 9.45412 22.3646 8.26213C23.6126 7.74144 24.5851 6.58818 24.882 5.2886C25.0843 4.38063 24.9552 3.18864 24.5636 2.42266C24.1376 1.58354 23.4189 0.864899 22.5712 0.430274C22.2571 0.266752 21.5901 0.0774107 21.2372 0.0515909C21.0522 0.038682 20.8413 0.0214691 20.7682 0.0128622C20.6993 0.00855923 20.553 0.00855923 20.4454 0.0171652ZM21.3491 1.81591C22.0634 2.00525 22.6788 2.51733 23.0058 3.19294C23.1952 3.58023 23.2468 3.83412 23.2468 4.31608C23.2468 5.05193 23.0273 5.58983 22.5153 6.10191C21.986 6.6269 21.4093 6.87219 20.6864 6.87219C19.9893 6.87219 19.3739 6.614 18.8747 6.11913C17.5838 4.82816 18.0012 2.68516 19.6924 1.9321C19.8128 1.88046 19.985 1.82021 20.0796 1.7987C20.355 1.73845 21.0866 1.74706 21.3491 1.81591Z" fill="#333333"/>
<path d="M6.56518 12.7101C6.25105 12.8736 6.07031 13.1576 6.07031 13.4804C6.07031 13.8806 6.35002 14.2248 6.74592 14.3195C6.96108 14.3668 12.6284 14.3668 12.8436 14.3152C13.0458 14.2722 13.1835 14.1732 13.36 13.9537C13.4804 13.8074 13.4934 13.7601 13.4934 13.4976C13.4934 13.2394 13.4761 13.1835 13.3643 13.0156C13.2911 12.9167 13.1534 12.7876 13.063 12.7359L12.8909 12.637L9.79259 12.6413C7.05145 12.6413 6.68137 12.6499 6.56518 12.7101Z" fill="#333333"/>
<path d="M6.75022 17.2475C6.36293 17.3206 6.07031 17.6821 6.07031 18.0823C6.07031 18.4094 6.24674 18.6848 6.56518 18.8526L6.73731 18.9473H12.0733H17.4093L17.6244 18.8397C18.3517 18.4739 18.1968 17.4024 17.3921 17.2475C17.1253 17.1959 7.00841 17.1959 6.75022 17.2475Z" fill="#333333"/>
</svg>
