<svg width="25" height="25" viewBox="0 0 25 25" fill="none" xmlns="http://www.w3.org/2000/svg">
<path d="M9.66971 1.13162C5.64201 1.9824 2.54465 4.85239 1.31932 8.85676C1.03568 9.78695 1.00164 10.0365 1.00164 11.7494C0.990294 13.2468 1.03568 13.78 1.20586 14.4152C2.82829 20.4048 8.72802 23.8987 14.6051 22.3332C15.49 22.095 17.2599 21.2782 17.9747 20.7564L18.542 20.348L19.8086 21.5916C22.2139 23.9851 22.3047 24.0532 22.9854 23.9851C23.5981 23.9284 24.0973 23.2138 23.9838 22.5672C23.9384 22.3176 23.3031 21.6029 21.5445 19.8333L20.3119 18.5784L20.7204 18.0112C22.1499 16.0374 22.8874 13.122 22.6037 10.6491C22.1045 6.21365 19.0072 2.57228 14.6504 1.30177C13.5726 0.995493 10.8043 0.893398 9.66971 1.13162ZM13.5045 3.53651C15.2518 3.89951 16.7607 4.7503 17.9747 6.06618C18.8824 7.05309 19.3589 7.8585 19.8014 9.10632C20.2779 10.4903 20.3573 12.3847 20.0056 13.7913C19.6085 15.4248 18.9731 16.5138 17.7251 17.7617C16.8515 18.6465 16.4657 18.9414 15.6829 19.3271C13.3911 20.4615 10.7816 20.5749 8.5238 19.6334C5.24491 18.2494 3.13462 14.8803 3.35019 11.3524C3.67921 6.14559 8.43303 2.49288 13.5045 3.53651Z" fill="#333333" stroke="#F6F5F1" stroke-width="0.7"/>
</svg>
