<svg width="49" height="49" viewBox="0 0 49 49" fill="none" xmlns="http://www.w3.org/2000/svg">
<g filter="url(#filter0_b_262_3923)">
<rect width="49" height="49" rx="15" fill="white" fill-opacity="0.03"/>
<rect x="0.5" y="0.5" width="48" height="48" rx="14.5" stroke="#D1D9E2" stroke-opacity="0.3"/>
<path d="M30.6172 30H19.3828C18.7511 29.9994 18.1454 29.7481 17.6987 29.3014C17.252 28.8546 17.0007 28.2489 17 27.6171V20.3829C17.0007 19.7511 17.252 19.1454 17.6987 18.6986C18.1454 18.2519 18.7511 18.0006 19.3828 18H30.6172C31.2489 18.0006 31.8546 18.2519 32.3013 18.6986C32.748 19.1454 32.9993 19.7511 33 20.3829V27.6171C32.9993 28.2489 32.748 28.8546 32.3013 29.3014C31.8546 29.7481 31.2489 29.9994 30.6172 30ZM19.3828 19.0783C19.037 19.0787 18.7054 19.2163 18.4608 19.4608C18.2162 19.7054 18.0786 20.037 18.0781 20.3829V27.6171C18.0786 27.963 18.2162 28.2946 18.4608 28.5392C18.7054 28.7838 19.037 28.9213 19.3828 28.9217H30.6172C30.963 28.9213 31.2946 28.7838 31.5392 28.5392C31.7838 28.2946 31.9214 27.963 31.9219 27.6171V20.3829C31.9214 20.037 31.7838 19.7054 31.5392 19.4608C31.2946 19.2162 30.963 19.0787 30.6172 19.0783L19.3828 19.0783ZM25 25.7769C24.688 25.7775 24.3789 25.7164 24.0905 25.5971C23.8021 25.4778 23.5402 25.3028 23.3197 25.082C23.1107 24.8724 22.2687 24.0305 21.3922 23.1544C20.4433 22.2057 19.4544 21.2169 19.1844 20.9463C19.0868 20.8443 19.0331 20.7081 19.0348 20.567C19.0364 20.4258 19.0934 20.291 19.1933 20.1913C19.2933 20.0917 19.4284 20.0352 19.5695 20.034C19.7106 20.0329 19.8466 20.0871 19.9482 20.185C20.4013 20.6406 23.5762 23.8118 24.0827 24.3201C24.3264 24.563 24.6564 24.6994 25.0005 24.6993C25.3445 24.6992 25.6745 24.5627 25.9181 24.3196L30.0526 20.1844C30.1543 20.0867 30.2904 20.0327 30.4314 20.0341C30.5725 20.0356 30.7075 20.0923 30.8072 20.1921C30.907 20.2919 30.9637 20.4268 30.9651 20.5679C30.9665 20.709 30.9125 20.8451 30.8148 20.9468L26.6803 25.0819C26.4598 25.3028 26.1978 25.4778 25.9095 25.5971C25.6211 25.7164 25.312 25.7775 25 25.7769Z" fill="white"/>
</g>
<defs>
<filter id="filter0_b_262_3923" x="-7" y="-7" width="63" height="63" filterUnits="userSpaceOnUse" color-interpolation-filters="sRGB">
<feFlood flood-opacity="0" result="BackgroundImageFix"/>
<feGaussianBlur in="BackgroundImageFix" stdDeviation="3.5"/>
<feComposite in2="SourceAlpha" operator="in" result="effect1_backgroundBlur_262_3923"/>
<feBlend mode="normal" in="SourceGraphic" in2="effect1_backgroundBlur_262_3923" result="shape"/>
</filter>
</defs>
</svg>
