<svg width="49" height="49" viewBox="0 0 49 49" fill="none" xmlns="http://www.w3.org/2000/svg">
<g filter="url(#filter0_b_348_7789)">
<rect width="49" height="49" rx="15" fill="white" fill-opacity="0.03"/>
<rect x="0.5" y="0.5" width="48" height="48" rx="14.5" stroke="#D1D9E2" stroke-opacity="0.3"/>
<path d="M18.8318 17.2561C18.6331 17.3043 18.2417 17.4548 17.9587 17.5933C17.5432 17.792 17.3505 17.9365 16.9289 18.3581C16.0919 19.1951 15.7427 19.9779 15.6885 21.1341C15.6523 21.947 15.7607 22.495 16.116 23.2116C16.2665 23.5127 16.5255 23.9101 16.6941 24.1028L17.0072 24.4461L16.5797 24.8435C15.8029 25.5661 15.273 26.5356 15.0983 27.5774C15.0261 27.9688 15.008 28.4084 15.02 29.0828C15.0381 30.1426 15.0682 30.2269 15.4897 30.51C15.7607 30.6966 16.2665 30.7027 16.5556 30.522C16.9169 30.2992 16.9952 30.0463 16.9952 29.0948C16.9952 28.6372 17.0253 28.1013 17.0614 27.9025C17.3324 26.3971 18.8378 25.3252 20.3011 25.5842C21.379 25.7769 22.2522 26.5416 22.6135 27.6075C22.6436 27.7038 22.6918 28.294 22.7098 28.9142C22.752 30.1547 22.77 30.2209 23.1976 30.51C23.4686 30.6966 23.9744 30.7027 24.2634 30.522C24.6428 30.2872 24.703 30.0643 24.703 28.9021C24.703 27.7761 24.6247 27.2281 24.3598 26.5657C24.0888 25.8913 23.5529 25.1687 22.9386 24.6387L22.7098 24.4461L23.047 24.0667C23.4385 23.6391 23.8118 22.9225 23.9443 22.3384C24.0828 21.7604 24.0707 20.7788 23.9202 20.2429C23.6853 19.3938 23.1855 18.605 22.5593 18.0931C22.1558 17.7679 21.379 17.3765 20.8792 17.2501C20.4276 17.1356 19.3196 17.1417 18.8318 17.2561ZM20.825 19.3577C21.2465 19.5624 21.6379 19.9598 21.8547 20.3994C22.0053 20.7065 22.0233 20.8029 22.0233 21.3448C22.0233 21.8386 21.9993 22.0012 21.8909 22.2361C21.6921 22.6576 21.2104 23.1333 20.7708 23.338C20.4456 23.4886 20.3252 23.5127 19.8555 23.5127C19.3918 23.5127 19.2654 23.4886 18.9703 23.3501C18.4946 23.1273 18.1152 22.76 17.8804 22.2842C17.7057 21.929 17.6877 21.8386 17.6877 21.3448C17.6877 20.8752 17.7118 20.7547 17.8623 20.4295C18.067 19.9839 18.5428 19.5022 18.9643 19.3155C19.5364 19.0626 20.2529 19.0807 20.825 19.3577Z" fill="white" stroke="#373737" stroke-width="0.5"/>
<path d="M26.5699 21.6821C26.1906 21.8327 25.9678 22.194 25.9678 22.6456C25.9678 23.037 26.1364 23.32 26.4555 23.4886C26.6844 23.6031 26.7988 23.6031 30.5383 23.591C34.3199 23.5729 34.3922 23.5729 34.5608 23.4465C34.7716 23.2959 35.0004 22.8564 35.0004 22.6034C35.0004 22.2963 34.7595 21.9109 34.4584 21.7544L34.1995 21.6159L30.46 21.6219C28.1236 21.6219 26.6663 21.646 26.5699 21.6821Z" fill="white" stroke="#373737" stroke-width="0.5"/>
<path d="M26.5699 25.5361C26.1906 25.6866 25.9678 26.0479 25.9678 26.4996C25.9678 26.891 26.1364 27.174 26.4555 27.3366C26.6723 27.451 26.8168 27.457 29.2075 27.457H31.7306L31.9353 27.3185C32.0437 27.2463 32.2003 27.0897 32.2786 26.9753C32.399 26.8007 32.4171 26.7103 32.399 26.4153C32.3689 25.9998 32.2364 25.795 31.8691 25.6023C31.6041 25.4699 31.58 25.4699 29.1593 25.4759C27.69 25.4759 26.6603 25.5 26.5699 25.5361Z" fill="white" stroke="#373737" stroke-width="0.5"/>
</g>
<defs>
<filter id="filter0_b_348_7789" x="-7" y="-7" width="63" height="63" filterUnits="userSpaceOnUse" color-interpolation-filters="sRGB">
<feFlood flood-opacity="0" result="BackgroundImageFix"/>
<feGaussianBlur in="BackgroundImageFix" stdDeviation="3.5"/>
<feComposite in2="SourceAlpha" operator="in" result="effect1_backgroundBlur_348_7789"/>
<feBlend mode="normal" in="SourceGraphic" in2="effect1_backgroundBlur_348_7789" result="shape"/>
</filter>
</defs>
</svg>
