<svg width="30" height="32" viewBox="0 0 30 32" fill="none" xmlns="http://www.w3.org/2000/svg">
<circle cx="20.1758" cy="11.1709" r="3.5" fill="#FF4747"/>
<path d="M8.37191 7.0183C5.2822 7.09576 3.12198 7.89185 1.81811 9.43241C0.819763 10.6201 0.260345 12.1563 0.0580934 14.3036C-0.0193645 15.1299 -0.0193645 23.547 0.0580934 24.3732C0.363622 27.5963 1.52549 29.6102 3.70292 30.6946C4.64962 31.1636 5.84592 31.4735 7.27459 31.6112C8.07929 31.6929 16.5824 31.6886 17.4087 31.6112C21.9529 31.1766 24.1303 29.012 24.5993 24.4808C24.651 23.9472 24.7069 17.3718 24.6596 16.9932C24.552 16.1067 23.4332 15.8958 23.033 16.6919C22.977 16.8038 22.9641 17.3288 22.9469 20.3927C22.9254 24.1322 22.9082 24.5152 22.7188 25.4533C22.452 26.8002 22.0002 27.7168 21.2471 28.4268C20.8771 28.7754 20.6619 28.926 20.1756 29.167C19.4527 29.5284 18.4673 29.7823 17.3441 29.8899C16.4792 29.9717 8.18257 29.9717 7.31762 29.8899C4.92503 29.6618 3.4146 28.8571 2.58838 27.3639C2.19249 26.6539 1.89557 25.5436 1.78799 24.3947C1.73204 23.7578 1.73204 14.919 1.78799 14.2821C1.95581 12.4877 2.51093 11.0934 3.38448 10.2758C4.20209 9.51417 5.10146 9.13118 6.73668 8.85147C7.08525 8.79123 7.71351 8.77832 10.9754 8.7568C14.7923 8.73098 14.8052 8.73098 14.9773 8.63631C15.7261 8.23611 15.5927 7.18613 14.7751 7.02691C14.6116 6.99679 9.55529 6.98818 8.37191 7.0183Z" fill="#333333"/>
<path d="M20.1212 7.01717C19.1788 7.08171 18.3956 7.38294 17.6727 7.95957C16.6528 8.77718 16.0762 9.97778 16.0762 11.286C16.0762 14.38 19.1917 16.4541 22.0404 15.2621C23.2884 14.7414 24.2609 13.5882 24.5578 12.2886C24.7601 11.3806 24.631 10.1886 24.2394 9.42266C23.8134 8.58354 23.0947 7.8649 22.247 7.43027C21.9328 7.26675 21.2658 7.07741 20.913 7.05159C20.7279 7.03868 20.5171 7.02147 20.4439 7.01286C20.3751 7.00856 20.2288 7.00856 20.1212 7.01717ZM21.0249 8.81591C21.7392 9.00525 22.3546 9.51733 22.6816 10.1929C22.8709 10.5802 22.9226 10.8341 22.9226 11.3161C22.9226 12.0519 22.7031 12.5898 22.191 13.1019C21.6617 13.6269 21.0851 13.8722 20.3622 13.8722C19.6651 13.8722 19.0497 13.614 18.5505 13.1191C17.2596 11.8282 17.677 9.68516 19.3681 8.9321C19.4886 8.88046 19.6608 8.82021 19.7554 8.7987C20.0308 8.73845 20.7624 8.74706 21.0249 8.81591Z" fill="#333333"/>
<path d="M6.24096 19.7101C5.92683 19.8736 5.74609 20.1576 5.74609 20.4804C5.74609 20.8806 6.0258 21.2248 6.4217 21.3195C6.63686 21.3668 12.3042 21.3668 12.5194 21.3152C12.7216 21.2722 12.8593 21.1732 13.0357 20.9537C13.1562 20.8074 13.1691 20.7601 13.1691 20.4976C13.1691 20.2394 13.1519 20.1835 13.04 20.0156C12.9669 19.9167 12.8292 19.7876 12.7388 19.7359L12.5667 19.637L9.46838 19.6413C6.72723 19.6413 6.35715 19.6499 6.24096 19.7101Z" fill="#333333"/>
<path d="M6.426 24.2475C6.03871 24.3206 5.74609 24.6821 5.74609 25.0823C5.74609 25.4094 5.92253 25.6848 6.24096 25.8526L6.41309 25.9473H11.7491H17.0851L17.3002 25.8397C18.0275 25.4739 17.8726 24.4024 17.0679 24.2475C16.8011 24.1959 6.68419 24.1959 6.426 24.2475Z" fill="#333333"/>
<circle cx="21.5" cy="8.5" r="7.25" fill="#FF4747" stroke="#333333" stroke-width="1.5"/>
</svg>
