<svg width="26" height="27" viewBox="0 0 26 27" fill="none" xmlns="http://www.w3.org/2000/svg">
<path fill-rule="evenodd" clip-rule="evenodd" d="M9.53454 25.0971C9.02236 21.487 8.08842 20.9485 4.71599 22.3062C4.45829 22.4097 4.1733 22.3356 3.9966 22.1417C2.59157 20.6372 1.60479 18.9814 1.02717 16.9832C0.951443 16.7216 1.04771 16.4506 1.24877 16.292L1.24789 16.2905C4.10285 14.0454 4.09992 12.9549 1.24789 10.7095C1.021 10.5306 0.944986 10.2304 1.04008 9.97269C1.32185 9.01167 1.71398 8.10008 2.20209 7.25382C2.70604 6.3799 3.31331 5.57189 4.00746 4.84715C4.19854 4.64795 4.48618 4.59734 4.72627 4.69856C8.12863 6.10066 9.03528 5.42182 9.53454 1.90319C9.57445 1.62306 9.78666 1.41032 10.0485 1.35736C12.1036 0.899209 13.9143 0.860663 15.9756 1.36383C16.2409 1.42827 16.4282 1.64807 16.4646 1.90348L16.4655 1.90319C16.9776 5.51334 17.9116 6.05181 21.284 4.69414C21.5417 4.59057 21.8267 4.66472 22.0034 4.85863C23.4084 6.36313 24.3952 8.01887 24.9728 10.0171C25.0486 10.2787 24.9523 10.5497 24.7512 10.7083L24.7521 10.7095C21.8974 12.9546 21.8998 14.0451 24.7521 16.2905C24.979 16.4694 25.055 16.7696 24.9599 17.0273C24.6782 17.9883 24.286 18.8999 23.7979 19.7462C23.294 20.6201 22.6864 21.4281 21.9925 22.1528C21.8015 22.3521 21.5138 22.4027 21.2737 22.3014C17.8714 20.8993 16.9647 21.5782 16.4655 25.0968C16.4258 25.3769 16.2133 25.5897 15.9515 25.6426C13.8964 26.1008 12.0857 26.1393 10.0244 25.6362C9.75907 25.5717 9.57181 25.3519 9.53542 25.0965L9.53454 25.0971ZM13 8.51645C10.2545 8.51645 8.02883 10.7477 8.02883 13.5001C8.02883 17.9257 13.391 20.1558 16.5151 17.0241C19.6392 13.8921 17.4141 8.51645 13 8.51645ZM15.5961 10.8975C13.2891 8.58471 9.32879 10.2316 9.32879 13.5001C9.32879 16.7687 13.2891 18.4156 15.5961 16.1028C17.0296 14.6654 17.0296 12.3349 15.5961 10.8975ZM8.84978 20.7075C9.85564 21.2898 10.4221 22.5048 10.7505 24.4689C12.2298 24.7705 13.7699 24.7714 15.2495 24.4686C15.9069 20.5333 17.6213 19.5408 21.3486 20.937C22.3521 19.8056 23.1226 18.4759 23.6013 17.0326C20.5347 14.4953 20.535 12.5047 23.6013 9.96739C23.1226 8.52439 22.3521 7.19438 21.3486 6.06299C17.621 7.4595 15.9072 6.46641 15.2495 2.53112C13.7702 2.22981 12.2301 2.22863 10.7505 2.53141C10.0931 6.46641 8.3784 7.45921 4.65142 6.06299C3.64821 7.19438 2.87716 8.52439 2.39874 9.96739C5.46503 12.5047 5.46532 14.4953 2.39874 17.0326C2.87745 18.4753 3.64791 19.8059 4.65142 20.937C6.51051 20.2405 7.84334 20.1249 8.84978 20.7075Z" fill="#333333" stroke="#333333" stroke-width="0.3"/>
</svg>
