<svg width="33" height="33" viewBox="0 0 33 33" fill="none" xmlns="http://www.w3.org/2000/svg">
<rect width="33" height="33" rx="16.5" fill="#464646"/>
<path d="M15.4325 9.02162C14.0193 9.16433 13.0203 9.76303 12.4669 10.8038C12.3068 11.1031 12.1675 11.4895 12.1014 11.8063C12.0631 11.9977 12.0422 12.036 11.9726 12.0569C11.9273 12.0708 11.7394 12.123 11.5584 12.1717C10.904 12.3493 10.3993 12.6486 9.95374 13.122C9.63698 13.4596 9.42466 13.8216 9.25758 14.3263C9.00348 15.0747 9 15.1339 9 17.6366C9 19.6067 9.00696 19.9095 9.06265 20.2576C9.22973 21.3053 9.60218 22.0502 10.18 22.4888C10.5803 22.7881 11.1651 23.0109 11.8542 23.1223C11.99 23.1432 12.3973 23.171 12.7593 23.1815L13.4206 23.2058L13.9462 23.8985C14.5066 24.6434 14.6667 24.7931 15.0357 24.9323C15.3211 25.0367 15.7771 25.0193 16.059 24.8871C16.3862 24.7339 16.4976 24.619 17.0615 23.8846L17.5941 23.1884H17.97C18.9307 23.1884 19.8879 22.9378 20.4936 22.5236C20.873 22.266 21.2593 21.8309 21.4926 21.4098C21.6283 21.1591 21.8441 20.543 21.8789 20.2924C21.9033 20.1323 21.9033 20.1323 22.0634 20.1079C22.582 20.0314 23.3374 19.6833 23.7342 19.3422C24.486 18.6947 24.862 17.8454 24.9594 16.5715C25.0047 15.9867 25.0047 13.1881 24.9594 12.6208C24.8202 10.8456 24.037 9.72822 22.5994 9.25483C21.8406 9.00422 21.8998 9.0077 18.6418 9.00074C17.0337 8.99726 15.5891 9.0077 15.4325 9.02162ZM21.4264 10.1703C22.1852 10.2573 22.6725 10.4627 23.0833 10.8664C23.3896 11.1693 23.581 11.5173 23.7098 12.0151C23.7864 12.304 23.7899 12.3736 23.8003 14.4168C23.8108 15.844 23.8038 16.6167 23.776 16.8186C23.7307 17.1702 23.5706 17.6644 23.4209 17.9324C23.2747 18.19 22.9023 18.552 22.6377 18.6913C22.4672 18.7818 22.0669 18.9419 22.0147 18.9419C22.0112 18.9419 22.0008 18.1169 21.9903 17.104C21.9764 15.3984 21.9694 15.2453 21.9033 14.925C21.8023 14.4551 21.7049 14.1767 21.5274 13.8251C21.0122 12.8226 20.0968 12.2135 18.8158 12.0325C18.5374 11.9907 17.9317 11.9803 15.8502 11.9803H13.2326L13.3231 11.7192C13.4345 11.3886 13.6851 10.9987 13.9288 10.7864C14.2804 10.4731 14.8617 10.2469 15.4917 10.1738C15.8711 10.132 21.047 10.1285 21.4264 10.1703ZM18.2276 13.129C18.7358 13.1638 19.0421 13.2264 19.3867 13.3622C20.1977 13.6824 20.6432 14.3124 20.8034 15.3567C20.873 15.8266 20.873 19.2134 20.7999 19.7425C20.6363 20.9747 20.0759 21.6395 18.9759 21.9214C18.7079 21.991 18.5095 22.0154 17.963 22.0363C17.3365 22.0607 17.2669 22.0711 17.0928 22.1512C16.8283 22.2765 16.7552 22.353 16.2087 23.084C15.9442 23.4391 15.6936 23.7558 15.6518 23.7871C15.5369 23.8811 15.4151 23.8637 15.2933 23.7384C15.2341 23.6757 14.9765 23.3416 14.7155 22.9935C14.0541 22.1094 13.9323 22.0398 13.0064 22.0398C11.1407 22.0398 10.4585 21.5942 10.2113 20.2193C10.1661 19.9548 10.1521 19.558 10.1417 17.9359C10.1313 16.655 10.1382 15.8335 10.1626 15.5794C10.3157 14.0166 11.1337 13.2369 12.7418 13.129C13.2849 13.0941 17.6985 13.0907 18.2276 13.129Z" fill="white"/>
<path d="M12.762 17.2126C12.2642 17.4981 12.2364 18.2012 12.7098 18.5145C12.8769 18.6258 13.1832 18.6607 13.3851 18.5945C13.4582 18.5702 13.5835 18.4866 13.66 18.4066C14.029 18.0376 13.9315 17.4389 13.4651 17.1987C13.2772 17.1047 12.9395 17.1082 12.762 17.2126Z" fill="white"/>
<path d="M15.1603 17.1902C14.8888 17.3329 14.7461 17.5696 14.7461 17.8794C14.7426 18.2866 15.0211 18.5929 15.4214 18.6208C15.6999 18.6417 15.9052 18.5616 16.0653 18.3737C16.3925 17.9908 16.2812 17.4269 15.8356 17.1971C15.6685 17.1136 15.3135 17.1101 15.1603 17.1902Z" fill="white"/>
<path d="M17.51 17.2112C17.423 17.2565 17.3081 17.3609 17.249 17.441C17.155 17.5767 17.1445 17.615 17.1445 17.8761C17.1445 18.1302 17.155 18.1789 17.2385 18.3042C17.3603 18.4887 17.6318 18.6279 17.8651 18.6279C18.4429 18.6279 18.7944 18.0466 18.5368 17.5245C18.4046 17.2635 18.2271 17.1521 17.9138 17.1382C17.7049 17.1277 17.6423 17.1382 17.51 17.2112Z" fill="white"/>
</svg>
